<svg width="71" height="71" viewBox="0 0 71 71" fill="none" xmlns="http://www.w3.org/2000/svg">
<circle cx="35.5" cy="35.5" r="34.75" fill="#FFFBF8" stroke="#6E7556" stroke-width="1.5"/>
<path fill-rule="evenodd" clip-rule="evenodd" d="M27.2241 50.9893C28.0329 50.9893 28.6903 51.6467 28.6903 52.4555C28.6903 53.2643 28.0329 53.9198 27.2241 53.9198C26.4153 53.9198 25.7598 53.2643 25.7598 52.4555C25.7598 51.6467 26.4153 50.9893 27.2241 50.9893Z" stroke="#6E7556" stroke-width="1.5" stroke-linecap="round" stroke-linejoin="round"/>
<path fill-rule="evenodd" clip-rule="evenodd" d="M48.7924 50.9893C49.6013 50.9893 50.2587 51.6467 50.2587 52.4555C50.2587 53.2643 49.6013 53.9198 48.7924 53.9198C47.9836 53.9198 47.3262 53.2643 47.3262 52.4555C47.3262 51.6467 47.9836 50.9893 48.7924 50.9893Z" stroke="#6E7556" stroke-width="1.5" stroke-linecap="round" stroke-linejoin="round"/>
<path d="M18.2695 19.2295L22.2562 19.9195L24.1019 41.9094C24.2514 43.7015 25.7484 45.0777 27.5462 45.0777H48.4609C48.4609 45.0777 51.6349 43.8165 51.8821 42.1145L53.701 29.545C53.9253 27.9944 52.7235 26.6067 51.1576 26.6067H22.8964" stroke="#6E7556" stroke-width="1.5" stroke-linecap="round" stroke-linejoin="round"/>
<path d="M40.0723 33.6904H45.3872" stroke="#6E7556" stroke-width="1.5" stroke-linecap="round" stroke-linejoin="round"/>
</svg>
