<svg width="149" height="178" viewBox="0 0 149 178" fill="none" xmlns="http://www.w3.org/2000/svg">
<mask id="mask0" mask-type="alpha" maskUnits="userSpaceOnUse" x="0" y="0" width="149" height="178">
<path d="M0.329102 0H144C146.761 0 149 2.23858 149 5V172.251C149 175.012 146.761 177.251 144 177.251H0.329102V0Z" fill="#B79078"/>
</mask>
<g mask="url(#mask0)">
<g style="mix-blend-mode:multiply">
<path d="M134.8 135.17C131.22 130.44 128.87 125.08 127.14 119.47C127.14 123.24 127.14 127.01 127.14 130.79C128.4 134.35 130.48 137.47 132.36 140.71C134.18 143.83 135.71 147.1 136.44 150.69C136.99 153.35 137.15 156.07 136.97 158.76C139.51 155.59 141.14 151.71 140.98 147.5C140.8 142.48 137.63 138.9 134.8 135.17Z" fill="#EAEAEA"/>
<path d="M127.15 136.8C127.09 137.71 127.04 138.61 127 139.52C127.1 144.3 126.93 149.11 127.24 153.88C129.14 158.19 131.43 162.63 132.42 167.3C134.62 161.9 135.16 155.8 133.7 150.11C132.45 145.21 129.55 141.14 127.15 136.8Z" fill="#EAEAEA"/>
<path d="M124.26 130.78C124.26 127.01 124.26 123.24 124.26 119.46C122.52 125.07 120.18 130.43 116.6 135.16C113.77 138.89 110.6 142.47 110.41 147.48C110.25 151.69 111.88 155.57 114.42 158.74C114.24 156.05 114.41 153.34 114.95 150.67C115.69 147.08 117.22 143.81 119.03 140.69C120.91 137.47 122.99 134.34 124.26 130.78Z" fill="#EAEAEA"/>
<path d="M125.7 94.2998C125.71 94.2998 125.71 94.2998 125.72 94.2998C125.71 94.2898 125.71 94.2698 125.7 94.2598C125.69 94.2698 125.69 94.2898 125.68 94.2998C125.69 94.2998 125.69 94.2998 125.7 94.2998Z" fill="#EAEAEA"/>
<path d="M124.26 109.16C124.26 105.39 124.26 101.61 124.26 97.8398C123.31 100.11 122.31 102.36 121.23 104.58C118.22 110.75 114.45 116.44 111.05 122.37C107.22 129.07 103.46 138.59 108.05 145.75C108.33 143.77 108.97 141.84 109.96 140.05C111.83 136.67 114.58 133.92 116.62 130.67C120.69 124.19 122.65 116.64 124.26 109.16Z" fill="#EAEAEA"/>
<path d="M139.4 120.75C137.62 117.74 135.78 114.77 134.02 111.75C131.4 107.26 129.16 102.58 127.14 97.79C127.14 101.58 127.14 105.37 127.14 109.16C128.03 113.3 129.03 117.43 130.42 121.43C131.72 125.16 133.42 128.75 135.64 131.99C137.8 135.12 140.54 137.87 142.11 141.4C142.74 142.82 143.14 144.26 143.35 145.71C145.46 142.26 145.83 137.85 145.07 133.88C144.17 129.12 141.82 124.83 139.4 120.75Z" fill="#EAEAEA"/>
<path d="M121.02 171.43C120.92 176.69 123.2 181.48 125.69 185.94C128.19 181.48 130.46 176.69 130.36 171.43C130.26 166.26 127.83 161.35 125.69 156.66C123.56 161.35 121.12 166.27 121.02 171.43Z" fill="#EAEAEA"/>
<path d="M124.39 139.52C124.35 138.61 124.3 137.71 124.24 136.8C121.84 141.14 118.94 145.21 117.69 150.11C116.23 155.81 116.77 161.91 118.97 167.31C119.96 162.64 122.26 158.2 124.15 153.89C124.46 149.11 124.29 144.3 124.39 139.52Z" fill="#EAEAEA"/>
<path d="M75.8296 94.2998C75.8396 94.2998 75.8396 94.2998 75.8496 94.2998C75.8396 94.2898 75.8396 94.2698 75.8296 94.2598C75.8196 94.2698 75.8196 94.2898 75.8096 94.2998C75.8196 94.2998 75.8196 94.2998 75.8296 94.2998Z" fill="#EAEAEA"/>
<path d="M74.3802 109.16C74.3802 105.39 74.3802 101.61 74.3802 97.8398C73.4302 100.11 72.4302 102.36 71.3602 104.58C68.3502 110.75 64.5802 116.44 61.1802 122.37C57.3502 129.07 53.5902 138.59 58.1802 145.75C58.4602 143.77 59.1002 141.84 60.0902 140.05C61.9602 136.67 64.7102 133.92 66.7502 130.67C70.8102 124.19 72.7802 116.64 74.3802 109.16Z" fill="#EAEAEA"/>
<path d="M74.3803 130.78C74.3803 127.01 74.3803 123.24 74.3803 119.46C72.6403 125.07 70.3003 130.43 66.7203 135.16C63.8903 138.89 60.7203 142.47 60.5303 147.48C60.3703 151.69 62.0003 155.57 64.5403 158.74C64.3603 156.05 64.5303 153.34 65.0703 150.67C65.8103 147.08 67.3403 143.81 69.1503 140.69C71.0403 137.47 73.1203 134.34 74.3803 130.78Z" fill="#EAEAEA"/>
<path d="M77.2799 136.8C77.2199 137.71 77.1699 138.61 77.1299 139.52C77.2299 144.3 77.0599 149.11 77.3699 153.88C79.2699 158.19 81.5599 162.63 82.5499 167.3C84.7499 161.9 85.2899 155.8 83.8299 150.11C82.5799 145.21 79.6799 141.14 77.2799 136.8Z" fill="#EAEAEA"/>
<path d="M89.5295 120.75C87.7495 117.74 85.9095 114.77 84.1495 111.75C81.5295 107.26 79.2895 102.58 77.2695 97.79C77.2695 101.58 77.2695 105.37 77.2695 109.16C78.1595 113.3 79.1595 117.43 80.5495 121.43C81.8495 125.16 83.5495 128.75 85.7695 131.99C87.9295 135.12 90.6695 137.87 92.2395 141.4C92.8695 142.82 93.2695 144.26 93.4795 145.71C95.5895 142.26 95.9595 137.85 95.1995 133.88C94.2995 129.12 91.9495 124.83 89.5295 120.75Z" fill="#EAEAEA"/>
<path d="M74.5196 139.52C74.4796 138.61 74.4296 137.71 74.3696 136.8C71.9696 141.14 69.0696 145.21 67.8196 150.11C66.3596 155.81 66.8996 161.91 69.0996 167.31C70.0896 162.64 72.3896 158.2 74.2796 153.89C74.5896 149.11 74.4096 144.3 74.5196 139.52Z" fill="#EAEAEA"/>
<path d="M71.1497 171.43C71.0497 176.69 73.3297 181.48 75.8197 185.94C78.3197 181.48 80.5897 176.69 80.4897 171.43C80.3897 166.26 77.9597 161.35 75.8197 156.66C73.6797 161.35 71.2497 166.27 71.1497 171.43Z" fill="#EAEAEA"/>
<path d="M84.9295 135.17C81.3495 130.44 78.9995 125.08 77.2695 119.47C77.2695 123.24 77.2695 127.01 77.2695 130.79C78.5295 134.35 80.6095 137.47 82.4895 140.71C84.3095 143.83 85.8395 147.1 86.5695 150.69C87.1195 153.35 87.2795 156.07 87.0995 158.76C89.6395 155.59 91.2695 151.71 91.1095 147.5C90.9295 142.48 87.7595 138.9 84.9295 135.17Z" fill="#EAEAEA"/>
<path d="M35.0604 135.17C31.4804 130.44 29.1304 125.08 27.4004 119.47C27.4004 123.24 27.4004 127.01 27.4004 130.79C28.6604 134.35 30.7404 137.47 32.6204 140.71C34.4404 143.83 35.9704 147.1 36.7004 150.69C37.2504 153.35 37.4104 156.07 37.2304 158.76C39.7704 155.59 41.4004 151.71 41.2404 147.5C41.0504 142.48 37.8804 138.9 35.0604 135.17Z" fill="#EAEAEA"/>
<path d="M39.6604 120.75C37.8804 117.74 36.0404 114.77 34.2804 111.75C31.6604 107.26 29.4204 102.58 27.4004 97.79C27.4004 101.58 27.4004 105.37 27.4004 109.16C28.2904 113.3 29.2904 117.43 30.6804 121.43C31.9804 125.16 33.6804 128.75 35.9004 131.99C38.0504 135.12 40.8004 137.87 42.3704 141.4C43.0004 142.82 43.4004 144.26 43.6104 145.71C45.7204 142.26 46.0904 137.85 45.3304 133.88C44.4304 129.12 42.0804 124.83 39.6604 120.75Z" fill="#EAEAEA"/>
<path d="M24.5101 109.16C24.5101 105.39 24.5101 101.61 24.5101 97.8398C23.5601 100.11 22.5601 102.36 21.4901 104.58C18.4801 110.75 14.7101 116.44 11.3101 122.37C7.48005 129.07 3.72005 138.59 8.31005 145.75C8.59005 143.77 9.23005 141.84 10.2201 140.05C12.0901 136.67 14.8401 133.92 16.8801 130.67C20.9401 124.19 22.9101 116.64 24.5101 109.16Z" fill="#EAEAEA"/>
<path d="M24.5102 130.78C24.5102 127.01 24.5102 123.24 24.5102 119.46C22.7702 125.07 20.4302 130.43 16.8502 135.16C14.0202 138.89 10.8502 142.47 10.6602 147.48C10.5002 151.69 12.1302 155.57 14.6702 158.74C14.4902 156.05 14.6602 153.34 15.2002 150.67C15.9402 147.08 17.4702 143.81 19.2802 140.69C21.1702 137.47 23.2502 134.34 24.5102 130.78Z" fill="#EAEAEA"/>
<path d="M21.2795 171.43C21.1795 176.69 23.4595 181.48 25.9495 185.94C28.4495 181.48 30.7195 176.69 30.6195 171.43C30.5195 166.26 28.0895 161.35 25.9495 156.66C23.8095 161.35 21.3695 166.27 21.2795 171.43Z" fill="#EAEAEA"/>
<path d="M27.4098 136.8C27.3498 137.71 27.2998 138.61 27.2598 139.52C27.3598 144.3 27.1898 149.11 27.4998 153.88C29.3998 158.19 31.6898 162.63 32.6798 167.3C34.8798 161.9 35.4198 155.8 33.9598 150.11C32.7098 145.21 29.7998 141.14 27.4098 136.8Z" fill="#EAEAEA"/>
<path d="M24.6495 139.52C24.6095 138.61 24.5595 137.71 24.4995 136.8C22.0995 141.14 19.1995 145.21 17.9495 150.11C16.4895 155.81 17.0295 161.91 19.2295 167.31C20.2195 162.64 22.5195 158.2 24.4095 153.89C24.7195 149.11 24.5395 144.3 24.6495 139.52Z" fill="#EAEAEA"/>
<path d="M25.9497 94.2998C25.9597 94.2998 25.9597 94.2998 25.9697 94.2998C25.9597 94.2898 25.9597 94.2698 25.9497 94.2598C25.9397 94.2698 25.9397 94.2898 25.9297 94.2998C25.9397 94.2998 25.9497 94.2998 25.9497 94.2998Z" fill="#EAEAEA"/>
<path d="M7.64969 -11.9405C5.76969 -8.71047 3.68969 -5.58047 2.42969 -2.02047C2.42969 1.74953 2.42969 5.51953 2.42969 9.29953C4.16969 3.68953 6.50969 -1.67047 10.0897 -6.40047C12.9197 -10.1305 16.0897 -13.7105 16.2797 -18.7205C16.4397 -22.9305 14.8097 -26.8105 12.2697 -29.9805C12.4497 -27.2905 12.2797 -24.5805 11.7397 -21.9105C10.9997 -18.3405 9.46969 -15.0705 7.64969 -11.9405Z" fill="#EAEAEA"/>
<path d="M18.6397 -16.9902C18.3597 -15.0102 17.7197 -13.0802 16.7297 -11.2902C14.8597 -7.91023 12.1097 -5.16023 10.0697 -1.91023C5.99969 4.56977 4.02969 12.1198 2.42969 19.5998C2.42969 23.3698 2.42969 27.1498 2.42969 30.9198C3.37969 28.6498 4.37969 26.3898 5.44969 24.1798C8.45969 18.0098 12.2397 12.3198 15.6397 6.38976C19.4697 -0.310234 23.2297 -9.84023 18.6397 -16.9902Z" fill="#EAEAEA"/>
<path d="M50.8598 34.4502C50.8498 34.4502 50.8498 34.4502 50.8398 34.4502C50.8498 34.4602 50.8498 34.4802 50.8598 34.4902C50.8698 34.4802 50.8698 34.4602 50.8798 34.4502C50.8698 34.4502 50.8598 34.4502 50.8598 34.4502Z" fill="#EAEAEA"/>
<path d="M66.5998 -11.2902C64.7298 -7.91023 61.9798 -5.16023 59.9398 -1.91023C55.8698 4.56977 53.8998 12.1198 52.2998 19.5998C52.2998 23.3698 52.2998 27.1498 52.2998 30.9198C53.2498 28.6498 54.2498 26.3898 55.3198 24.1798C58.3298 18.0098 62.0998 12.3198 65.4998 6.38976C69.3298 -0.310234 73.0898 -9.83023 68.4998 -16.9902C68.2298 -15.0102 67.5998 -13.0902 66.5998 -11.2902Z" fill="#EAEAEA"/>
<path d="M52.2998 -2.03024C52.2998 1.73977 52.2998 5.50977 52.2998 9.28976C54.0398 3.67976 56.3798 -1.68024 59.9598 -6.41024C62.7898 -10.1402 65.9598 -13.7202 66.1498 -18.7302C66.3098 -22.9402 64.6798 -26.8202 62.1398 -29.9902C62.3198 -27.3002 62.1498 -24.5902 61.6098 -21.9202C60.8698 -18.3302 59.3398 -15.0602 57.5298 -11.9402C55.6398 -8.71024 53.5698 -5.59023 52.2998 -2.03024Z" fill="#EAEAEA"/>
<path d="M33.2098 -16.9502C31.0998 -13.5002 30.7298 -9.0902 31.4898 -5.1202C32.3898 -0.360195 34.7398 3.9198 37.1598 8.0098C38.9398 11.0198 40.7798 13.9898 42.5398 17.0098C45.1598 21.4998 47.3998 26.1798 49.4198 30.9698C49.4198 27.1798 49.4198 23.3898 49.4198 19.5998C48.5298 15.4598 47.5298 11.3298 46.1398 7.3298C44.8398 3.5998 43.1398 0.00980377 40.9198 -3.2302C38.7698 -6.3602 36.0198 -9.1102 34.4498 -12.6402C33.8098 -14.0502 33.4098 -15.5002 33.2098 -16.9502Z" fill="#EAEAEA"/>
<path d="M35.5697 -18.73C35.7597 -13.73 38.9297 -10.15 41.7597 -6.41C45.3397 -1.68 47.6897 3.68 49.4197 9.29C49.4197 5.52 49.4197 1.75 49.4197 -2.03C48.1597 -5.59 46.0797 -8.71 44.1997 -11.95C42.3797 -15.07 40.8497 -18.34 40.1197 -21.93C39.5697 -24.59 39.4097 -27.31 39.5897 -30C37.0397 -26.82 35.3997 -22.94 35.5697 -18.73Z" fill="#EAEAEA"/>
<path d="M100.73 34.4502C100.72 34.4502 100.72 34.4502 100.71 34.4502C100.72 34.4602 100.72 34.4802 100.73 34.4902C100.74 34.4802 100.74 34.4602 100.75 34.4502C100.74 34.4502 100.74 34.4502 100.73 34.4502Z" fill="#EAEAEA"/>
<path d="M83.0799 -16.9502C80.9699 -13.5002 80.5999 -9.0902 81.3599 -5.1202C82.2599 -0.360195 84.6099 3.9198 87.0299 8.0098C88.8099 11.0198 90.6499 13.9898 92.4099 17.0098C95.0299 21.4998 97.2699 26.1798 99.2899 30.9698C99.2899 27.1798 99.2899 23.3898 99.2899 19.5998C98.3999 15.4598 97.3999 11.3298 96.0099 7.3298C94.7099 3.5998 93.0099 0.00980377 90.7899 -3.2302C88.6399 -6.3602 85.8899 -9.1102 84.3199 -12.6402C83.6899 -14.0502 83.2799 -15.5002 83.0799 -16.9502Z" fill="#EAEAEA"/>
<path d="M102.17 -2.03024C102.17 1.73977 102.17 5.50977 102.17 9.28976C103.91 3.67976 106.25 -1.68024 109.83 -6.41024C112.66 -10.1402 115.83 -13.7202 116.02 -18.7302C116.18 -22.9402 114.55 -26.8202 112.01 -29.9902C112.19 -27.3002 112.02 -24.5902 111.48 -21.9202C110.74 -18.3302 109.21 -15.0602 107.4 -11.9402C105.52 -8.71024 103.44 -5.59023 102.17 -2.03024Z" fill="#EAEAEA"/>
<path d="M85.4395 -18.73C85.6295 -13.73 88.7995 -10.15 91.6295 -6.41C95.2095 -1.68 97.5595 3.68 99.2895 9.29C99.2895 5.52 99.2895 1.75 99.2895 -2.03C98.0295 -5.59 95.9495 -8.71 94.0695 -11.95C92.2495 -15.07 90.7195 -18.34 89.9895 -21.93C89.4395 -24.59 89.2795 -27.31 89.4595 -30C86.9095 -26.82 85.2795 -22.94 85.4395 -18.73Z" fill="#EAEAEA"/>
<path d="M116.48 -11.2902C114.61 -7.91023 111.86 -5.16023 109.82 -1.91023C105.75 4.56977 103.78 12.1198 102.18 19.5998C102.18 23.3698 102.18 27.1498 102.18 30.9198C103.13 28.6498 104.13 26.3898 105.21 24.1798C108.22 18.0098 111.99 12.3198 115.39 6.38976C119.22 -0.310234 122.98 -9.83023 118.39 -16.9902C118.1 -15.0102 117.47 -13.0902 116.48 -11.2902Z" fill="#EAEAEA"/>
<path d="M135.31 -18.73C135.5 -13.73 138.67 -10.15 141.5 -6.41C145.08 -1.68 147.43 3.68 149.16 9.29C149.16 5.52 149.16 1.75 149.16 -2.03C147.9 -5.59 145.82 -8.71 143.94 -11.95C142.12 -15.07 140.59 -18.34 139.86 -21.93C139.31 -24.59 139.15 -27.31 139.33 -30C136.79 -26.82 135.15 -22.94 135.31 -18.73Z" fill="#EAEAEA"/>
<path d="M132.95 -16.9502C130.84 -13.5002 130.47 -9.0902 131.23 -5.1202C132.13 -0.360195 134.48 3.9198 136.9 8.0098C138.68 11.0198 140.52 13.9898 142.28 17.0098C144.9 21.4998 147.14 26.1798 149.16 30.9698C149.16 27.1798 149.16 23.3898 149.16 19.5998C148.27 15.4598 147.27 11.3298 145.88 7.3298C144.58 3.5998 142.88 0.00980377 140.66 -3.2302C138.51 -6.3602 135.76 -9.1102 134.19 -12.6402C133.56 -14.0502 133.16 -15.5002 132.95 -16.9502Z" fill="#EAEAEA"/>
<path d="M124.39 39.7698C124.35 38.8598 124.3 37.9598 124.24 37.0498C121.84 41.3898 118.94 45.4598 117.69 50.3598C116.23 56.0598 116.77 62.1598 118.97 67.5598C119.96 62.8898 122.26 58.4498 124.15 54.1398C124.46 49.3598 124.29 44.5498 124.39 39.7698Z" fill="#EAEAEA"/>
<path d="M127.14 9.41004C128.03 13.55 129.03 17.68 130.42 21.68C131.72 25.41 133.42 29 135.64 32.24C137.8 35.37 140.54 38.12 142.11 41.65C142.74 43.07 143.14 44.51 143.35 45.96C145.46 42.51 145.83 38.1 145.07 34.13C144.17 29.37 141.82 25.09 139.4 21C137.62 17.99 135.78 15.02 134.02 12C131.4 7.51004 129.16 2.83004 127.14 -1.95996C127.14 1.83004 127.14 5.62004 127.14 9.41004Z" fill="#EAEAEA"/>
<path d="M140.99 47.7397C140.8 42.7397 137.63 39.1597 134.8 35.4197C131.22 30.6897 128.87 25.3297 127.14 19.7197C127.14 23.4897 127.14 27.2597 127.14 31.0397C128.4 34.5997 130.48 37.7197 132.36 40.9597C134.18 44.0797 135.71 47.3497 136.44 50.9397C136.99 53.5997 137.15 56.3197 136.97 59.0097C139.52 55.8297 141.16 51.9497 140.99 47.7397Z" fill="#EAEAEA"/>
<path d="M133.7 50.3598C132.45 45.4598 129.55 41.3898 127.15 37.0498C127.09 37.9598 127.04 38.8598 127 39.7698C127.1 44.5498 126.93 49.3598 127.24 54.1298C129.14 58.4398 131.43 62.8798 132.42 67.5498C134.63 62.1598 135.16 56.0598 133.7 50.3598Z" fill="#EAEAEA"/>
<path d="M125.7 56.9102C123.56 61.6002 121.12 66.5202 121.03 71.6802C120.93 76.9402 123.21 81.7302 125.7 86.1902C128.2 81.7302 130.47 76.9402 130.37 71.6802C130.28 66.5202 127.84 61.6002 125.7 56.9102Z" fill="#EAEAEA"/>
<path d="M108.05 45.9998C108.33 44.0198 108.97 42.0898 109.96 40.2998C111.83 36.9198 114.58 34.1698 116.62 30.9198C120.69 24.4398 122.66 16.8898 124.26 9.40984C124.26 5.63984 124.26 1.85984 124.26 -1.91016C123.31 0.359844 122.31 2.60984 121.23 4.82984C118.22 10.9998 114.45 16.6898 111.05 22.6198C107.22 29.3198 103.46 38.8498 108.05 45.9998Z" fill="#EAEAEA"/>
<path d="M124.26 31.0397C124.26 27.2697 124.26 23.4997 124.26 19.7197C122.52 25.3297 120.18 30.6897 116.6 35.4197C113.77 39.1497 110.6 42.7297 110.41 47.7397C110.25 51.9497 111.88 55.8297 114.42 58.9997C114.24 56.3097 114.41 53.5997 114.95 50.9297C115.69 47.3397 117.22 44.0697 119.03 40.9497C120.91 37.7197 122.99 34.5897 124.26 31.0397Z" fill="#EAEAEA"/>
<path d="M91.1195 47.7397C90.9295 42.7397 87.7595 39.1597 84.9295 35.4197C81.3495 30.6897 78.9995 25.3297 77.2695 19.7197C77.2695 23.4897 77.2695 27.2597 77.2695 31.0397C78.5295 34.5997 80.6095 37.7197 82.4895 40.9597C84.3095 44.0797 85.8395 47.3497 86.5695 50.9397C87.1195 53.5997 87.2795 56.3197 87.0995 59.0097C89.6495 55.8297 91.2795 51.9497 91.1195 47.7397Z" fill="#EAEAEA"/>
<path d="M77.2695 9.41004C78.1595 13.55 79.1595 17.68 80.5495 21.68C81.8495 25.41 83.5495 29 85.7695 32.24C87.9295 35.37 90.6695 38.12 92.2395 41.65C92.8695 43.07 93.2695 44.51 93.4795 45.96C95.5895 42.51 95.9595 38.1 95.1995 34.13C94.2995 29.37 91.9495 25.09 89.5295 21C87.7495 17.99 85.9095 15.02 84.1495 12C81.5295 7.51004 79.2895 2.83004 77.2695 -1.95996C77.2695 1.83004 77.2695 5.62004 77.2695 9.41004Z" fill="#EAEAEA"/>
<path d="M75.8304 56.9102C73.6904 61.6002 71.2504 66.5202 71.1604 71.6802C71.0604 76.9402 73.3404 81.7302 75.8304 86.1902C78.3304 81.7302 80.6004 76.9402 80.5004 71.6802C80.4004 66.5202 77.9704 61.6002 75.8304 56.9102Z" fill="#EAEAEA"/>
<path d="M74.3803 31.0397C74.3803 27.2697 74.3803 23.4997 74.3803 19.7197C72.6403 25.3297 70.3003 30.6897 66.7203 35.4197C63.8903 39.1497 60.7203 42.7297 60.5303 47.7397C60.3703 51.9497 62.0003 55.8297 64.5403 58.9997C64.3603 56.3097 64.5303 53.5997 65.0703 50.9297C65.8103 47.3397 67.3403 44.0697 69.1503 40.9497C71.0403 37.7197 73.1203 34.5897 74.3803 31.0397Z" fill="#EAEAEA"/>
<path d="M83.8299 50.3598C82.5799 45.4598 79.6799 41.3898 77.2799 37.0498C77.2199 37.9598 77.1699 38.8598 77.1299 39.7698C77.2299 44.5498 77.0599 49.3598 77.3699 54.1298C79.2699 58.4398 81.5599 62.8798 82.5499 67.5498C84.7499 62.1598 85.2899 56.0598 83.8299 50.3598Z" fill="#EAEAEA"/>
<path d="M74.5196 39.7698C74.4796 38.8598 74.4296 37.9598 74.3696 37.0498C71.9696 41.3898 69.0696 45.4598 67.8196 50.3598C66.3596 56.0598 66.8996 62.1598 69.0996 67.5598C70.0896 62.8898 72.3896 58.4498 74.2796 54.1398C74.5896 49.3598 74.4096 44.5498 74.5196 39.7698Z" fill="#EAEAEA"/>
<path d="M58.1701 45.9998C58.4501 44.0198 59.0901 42.0898 60.0801 40.2998C61.9501 36.9198 64.7001 34.1698 66.7401 30.9198C70.8101 24.4398 72.78 16.8898 74.38 9.40984C74.38 5.63984 74.38 1.85984 74.38 -1.91016C73.43 0.359844 72.4301 2.60984 71.3601 4.82984C68.3501 10.9998 64.58 16.6898 61.18 22.6198C57.34 29.3198 53.5801 38.8498 58.1701 45.9998Z" fill="#EAEAEA"/>
<path d="M25.9495 56.9102C23.8095 61.6002 21.3695 66.5202 21.2795 71.6802C21.1795 76.9402 23.4595 81.7302 25.9495 86.1902C28.4495 81.7302 30.7195 76.9402 30.6195 71.6802C30.5295 66.5202 28.0995 61.6002 25.9495 56.9102Z" fill="#EAEAEA"/>
<path d="M27.4004 9.41004C28.2904 13.55 29.2904 17.68 30.6804 21.68C31.9804 25.41 33.6804 29 35.9004 32.24C38.0504 35.37 40.8004 38.12 42.3704 41.65C43.0004 43.07 43.4004 44.51 43.6104 45.96C45.7204 42.51 46.0904 38.1 45.3304 34.13C44.4304 29.37 42.0804 25.09 39.6604 21C37.8804 17.99 36.0404 15.02 34.2804 12C31.6604 7.51004 29.4204 2.83004 27.4004 -1.95996C27.4004 1.83004 27.4004 5.62004 27.4004 9.41004Z" fill="#EAEAEA"/>
<path d="M33.9598 50.3598C32.7098 45.4598 29.8098 41.3898 27.4098 37.0498C27.3498 37.9598 27.2998 38.8598 27.2598 39.7698C27.3598 44.5498 27.1898 49.3598 27.4998 54.1298C29.3998 58.4398 31.6898 62.8798 32.6798 67.5498C34.8798 62.1598 35.4198 56.0598 33.9598 50.3598Z" fill="#EAEAEA"/>
<path d="M24.4095 54.1298C24.7195 49.3598 24.5395 44.5498 24.6495 39.7698C24.6095 38.8598 24.5595 37.9598 24.4995 37.0498C22.0995 41.3898 19.1995 45.4598 17.9495 50.3598C16.4895 56.0598 17.0295 62.1598 19.2295 67.5598C20.2195 62.8898 22.5095 58.4498 24.4095 54.1298Z" fill="#EAEAEA"/>
<path d="M8.29993 45.9998C8.57993 44.0198 9.21993 42.0898 10.2099 40.2998C12.0799 36.9198 14.8299 34.1698 16.8699 30.9198C20.9399 24.4398 22.9099 16.8898 24.5099 9.40984C24.5099 5.63984 24.5099 1.85984 24.5099 -1.91016C23.5599 0.359844 22.5599 2.60984 21.4899 4.82984C18.4799 10.9998 14.7099 16.6898 11.3099 22.6198C7.46993 29.3198 3.70993 38.8498 8.29993 45.9998Z" fill="#EAEAEA"/>
<path d="M24.5102 31.0397C24.5102 27.2697 24.5102 23.4997 24.5102 19.7197C22.7702 25.3297 20.4302 30.6897 16.8502 35.4197C14.0202 39.1497 10.8502 42.7297 10.6602 47.7397C10.5002 51.9497 12.1302 55.8297 14.6702 58.9997C14.4902 56.3097 14.6602 53.5997 15.2002 50.9297C15.9402 47.3397 17.4702 44.0697 19.2802 40.9497C21.1702 37.7197 23.2502 34.5897 24.5102 31.0397Z" fill="#EAEAEA"/>
<path d="M41.2504 47.7397C41.0604 42.7397 37.8904 39.1597 35.0604 35.4197C31.4804 30.6897 29.1304 25.3297 27.4004 19.7197C27.4004 23.4897 27.4004 27.2597 27.4004 31.0397C28.6604 34.5997 30.7404 37.7197 32.6204 40.9597C34.4404 44.0797 35.9704 47.3497 36.7004 50.9397C37.2504 53.5997 37.4104 56.3197 37.2304 59.0097C39.7704 55.8297 41.4104 51.9497 41.2504 47.7397Z" fill="#EAEAEA"/>
<path d="M18.6397 82.75C18.3597 84.73 17.7197 86.66 16.7297 88.45C14.8597 91.83 12.1097 94.58 10.0697 97.83C5.99969 104.31 4.02969 111.86 2.42969 119.34C2.42969 123.11 2.42969 126.89 2.42969 130.66C3.37969 128.39 4.37969 126.13 5.44969 123.92C8.45969 117.75 12.2297 112.06 15.6297 106.13C19.4697 99.44 23.2297 89.91 18.6397 82.75Z" fill="#EAEAEA"/>
<path d="M1 42.5898V71.8098C3.14 67.1298 5.56 62.2298 5.66 57.0698C5.76 51.8198 3.49 47.0398 1 42.5898Z" fill="#EAEAEA"/>
<path d="M8.99004 78.3904C10.45 72.6904 9.91004 66.5904 7.71004 61.1904C6.72004 65.8604 4.42004 70.3004 2.53004 74.6104C2.22004 79.3804 2.40004 84.1904 2.29004 88.9704C2.33004 89.8804 2.38004 90.7804 2.44004 91.6904C4.84004 87.3604 7.74004 83.2904 8.99004 78.3904Z" fill="#EAEAEA"/>
<path d="M7.64969 87.7998C5.76969 91.0298 3.68969 94.1598 2.42969 97.7198C2.42969 101.49 2.42969 105.26 2.42969 109.04C4.16969 103.43 6.50969 98.0698 10.0897 93.3398C12.9197 89.6098 16.0897 86.0298 16.2797 81.0198C16.4397 76.8098 14.8097 72.9298 12.2697 69.7598C12.4497 72.4498 12.2797 75.1598 11.7397 77.8298C10.9997 81.4098 9.46969 84.6798 7.64969 87.7998Z" fill="#EAEAEA"/>
<path d="M65.5098 106.13C69.3398 99.43 73.0998 89.91 68.5098 82.75C68.2298 84.73 67.5898 86.66 66.5998 88.45C64.7298 91.83 61.9798 94.58 59.9398 97.83C55.8698 104.31 53.8998 111.86 52.2998 119.34C52.2998 123.11 52.2998 126.89 52.2998 130.66C53.2498 128.39 54.2498 126.13 55.3198 123.92C58.3298 117.75 62.1098 112.07 65.5098 106.13Z" fill="#EAEAEA"/>
<path d="M37.15 107.75C38.93 110.76 40.77 113.73 42.53 116.75C45.15 121.24 47.39 125.92 49.41 130.71C49.41 126.92 49.41 123.13 49.41 119.34C48.52 115.2 47.52 111.07 46.13 107.07C44.83 103.34 43.13 99.75 40.91 96.51C38.76 93.38 36.01 90.63 34.44 87.1C33.81 85.68 33.41 84.24 33.2 82.79C31.09 86.24 30.72 90.65 31.48 94.62C32.39 99.38 34.73 103.66 37.15 107.75Z" fill="#EAEAEA"/>
<path d="M50.8598 134.24C50.8698 134.23 50.8698 134.21 50.8798 134.2H50.8698C50.8598 134.2 50.8598 134.2 50.8498 134.2C50.8398 134.21 50.8498 134.23 50.8598 134.24Z" fill="#EAEAEA"/>
<path d="M50.8597 42.5596C48.3597 47.0196 46.0897 51.8096 46.1897 57.0696C46.2897 62.2396 48.7197 67.1496 50.8597 71.8396C52.9997 67.1496 55.4397 62.2296 55.5297 57.0696C55.6297 51.8096 53.3597 47.0196 50.8597 42.5596Z" fill="#EAEAEA"/>
<path d="M49.3099 74.6202C47.4099 70.3102 45.1199 65.8702 44.1299 61.2002C41.9299 66.6002 41.3899 72.7002 42.8499 78.3902C44.0999 83.2902 46.9999 87.3602 49.3999 91.7002C49.4599 90.7902 49.5099 89.8902 49.5499 88.9802C49.4499 84.2002 49.6199 79.3902 49.3099 74.6202Z" fill="#EAEAEA"/>
<path d="M58.8602 78.3904C60.3202 72.6904 59.7802 66.5904 57.5802 61.1904C56.5902 65.8604 54.2902 70.3004 52.4002 74.6104C52.0902 79.3804 52.2702 84.1904 52.1602 88.9704C52.2002 89.8804 52.2502 90.7804 52.3102 91.6904C54.7102 87.3604 57.6102 83.2904 58.8602 78.3904Z" fill="#EAEAEA"/>
<path d="M57.5198 87.7998C55.6398 91.0298 53.5598 94.1598 52.2998 97.7198C52.2998 101.49 52.2998 105.26 52.2998 109.04C54.0398 103.43 56.3798 98.0698 59.9598 93.3398C62.7898 89.6098 65.9598 86.0298 66.1498 81.0198C66.3098 76.8098 64.6798 72.9298 62.1398 69.7598C62.3198 72.4498 62.1498 75.1598 61.6098 77.8298C60.8698 81.4098 59.3398 84.6798 57.5198 87.7998Z" fill="#EAEAEA"/>
<path d="M49.4201 97.72C48.1601 94.16 46.0801 91.04 44.2001 87.8C42.3801 84.68 40.8501 81.41 40.1201 77.82C39.5701 75.16 39.4101 72.44 39.5901 69.75C37.0501 72.92 35.4201 76.8 35.5801 81.01C35.7701 86.01 38.9401 89.59 41.7701 93.33C45.3501 98.06 47.7001 103.42 49.4301 109.03C49.4201 105.26 49.4201 101.49 49.4201 97.72Z" fill="#EAEAEA"/>
<path d="M100.73 134.24C100.74 134.23 100.74 134.21 100.75 134.2H100.74C100.73 134.2 100.73 134.2 100.72 134.2C100.72 134.21 100.72 134.23 100.73 134.24Z" fill="#EAEAEA"/>
<path d="M99.2903 97.72C98.0303 94.16 95.9503 91.04 94.0703 87.8C92.2503 84.68 90.7203 81.41 89.9903 77.82C89.4403 75.16 89.2803 72.44 89.4603 69.75C86.9203 72.92 85.2903 76.8 85.4503 81.01C85.6403 86.01 88.8103 89.59 91.6403 93.33C95.2203 98.06 97.5703 103.42 99.3003 109.03C99.2903 105.26 99.2903 101.49 99.2903 97.72Z" fill="#EAEAEA"/>
<path d="M87.0299 107.75C88.8099 110.76 90.6499 113.73 92.4099 116.75C95.0299 121.24 97.2699 125.92 99.2899 130.71C99.2899 126.92 99.2899 123.13 99.2899 119.34C98.3999 115.2 97.3999 111.07 96.0099 107.07C94.7099 103.34 93.0099 99.75 90.7899 96.51C88.6399 93.38 85.8899 90.63 84.3199 87.1C83.6899 85.68 83.2899 84.24 83.0799 82.79C80.9699 86.24 80.5999 90.65 81.3599 94.62C82.2599 99.38 84.6099 103.66 87.0299 107.75Z" fill="#EAEAEA"/>
<path d="M100.73 42.5596C98.2298 47.0196 95.9598 51.8096 96.0598 57.0696C96.1598 62.2396 98.5898 67.1496 100.73 71.8396C102.87 67.1496 105.31 62.2296 105.4 57.0696C105.5 51.8096 103.23 47.0196 100.73 42.5596Z" fill="#EAEAEA"/>
<path d="M115.38 106.13C119.21 99.43 122.97 89.91 118.38 82.75C118.1 84.73 117.46 86.66 116.47 88.45C114.6 91.83 111.85 94.58 109.81 97.83C105.74 104.31 103.77 111.86 102.17 119.34C102.17 123.11 102.17 126.89 102.17 130.66C103.12 128.39 104.12 126.13 105.2 123.92C108.21 117.75 111.98 112.07 115.38 106.13Z" fill="#EAEAEA"/>
<path d="M107.4 87.7998C105.52 91.0298 103.44 94.1598 102.18 97.7198C102.18 101.49 102.18 105.26 102.18 109.04C103.92 103.43 106.26 98.0698 109.84 93.3398C112.67 89.6098 115.84 86.0298 116.03 81.0198C116.19 76.8098 114.56 72.9298 112.02 69.7598C112.2 72.4498 112.03 75.1598 111.49 77.8298C110.75 81.4098 109.22 84.6798 107.4 87.7998Z" fill="#EAEAEA"/>
<path d="M108.74 78.3904C110.2 72.6904 109.66 66.5904 107.46 61.1904C106.47 65.8604 104.17 70.3004 102.28 74.6104C101.97 79.3804 102.15 84.1904 102.04 88.9704C102.08 89.8804 102.13 90.7804 102.19 91.6904C104.58 87.3604 107.48 83.2904 108.74 78.3904Z" fill="#EAEAEA"/>
<path d="M99.1898 74.6202C97.2898 70.3102 94.9998 65.8702 94.0098 61.2002C91.8098 66.6002 91.2698 72.7002 92.7298 78.3902C93.9798 83.2902 96.8798 87.3602 99.2798 91.7002C99.3398 90.7902 99.3898 89.8902 99.4298 88.9802C99.3198 84.2002 99.4998 79.3902 99.1898 74.6202Z" fill="#EAEAEA"/>
<path d="M150.6 42.5596C148.1 47.0196 145.83 51.8096 145.93 57.0696C146.03 62.2396 148.46 67.1496 150.6 71.8396C152.74 67.1496 155.18 62.2296 155.27 57.0696C155.38 51.8096 153.1 47.0196 150.6 42.5596Z" fill="#EAEAEA"/>
<path d="M149.16 97.72C147.9 94.16 145.82 91.04 143.94 87.8C142.12 84.68 140.59 81.41 139.86 77.82C139.31 75.16 139.15 72.44 139.33 69.75C136.79 72.92 135.16 76.8 135.32 81.01C135.51 86.01 138.68 89.59 141.51 93.33C145.09 98.06 147.44 103.42 149.17 109.03C149.16 105.26 149.16 101.49 149.16 97.72Z" fill="#EAEAEA"/>
<path d="M149.06 74.6202C147.16 70.3102 144.87 65.8702 143.88 61.2002C141.68 66.6002 141.14 72.7002 142.6 78.3902C143.85 83.2902 146.75 87.3602 149.15 91.7002C149.21 90.7902 149.26 89.8902 149.3 88.9802C149.19 84.2002 149.37 79.3902 149.06 74.6202Z" fill="#EAEAEA"/>
<path d="M136.9 107.75C138.68 110.76 140.52 113.73 142.28 116.75C144.9 121.24 147.14 125.92 149.16 130.71C149.16 126.92 149.16 123.13 149.16 119.34C148.27 115.2 147.27 111.07 145.88 107.07C144.58 103.34 142.88 99.75 140.66 96.51C138.51 93.38 135.76 90.63 134.19 87.1C133.56 85.68 133.16 84.24 132.95 82.79C130.84 86.24 130.47 90.65 131.23 94.62C132.13 99.38 134.48 103.66 136.9 107.75Z" fill="#EAEAEA"/>
<path d="M12.2695 169.5C12.4495 172.19 12.2795 174.9 11.7395 177.57C10.9995 181.16 9.46953 184.43 7.65953 187.55C7.36953 188.06 7.06953 188.56 6.76953 189.06H13.1095C14.8095 186.6 16.1595 183.98 16.2895 180.76C16.4395 176.55 14.7995 172.67 12.2695 169.5Z" fill="#EAEAEA"/>
<path d="M7.71004 160.94C6.72004 165.61 4.42004 170.05 2.53004 174.36C2.22004 179.13 2.40004 183.94 2.29004 188.72C2.29004 188.83 2.30004 188.94 2.31004 189.05H3.81004C5.86004 185.56 7.97004 182.12 8.99004 178.13C10.45 172.44 9.91004 166.34 7.71004 160.94Z" fill="#EAEAEA"/>
<path d="M1 142.33V171.55C3.14 166.87 5.56 161.97 5.66 156.81C5.76 151.57 3.49 146.79 1 142.33Z" fill="#EAEAEA"/>
<path d="M62.1396 169.5C62.3196 172.19 62.1496 174.9 61.6096 177.57C60.8696 181.16 59.3396 184.43 57.5296 187.55C57.2396 188.06 56.9396 188.56 56.6396 189.06H62.9796C64.6796 186.6 66.0296 183.98 66.1596 180.76C66.3096 176.55 64.6796 172.67 62.1396 169.5Z" fill="#EAEAEA"/>
<path d="M57.5899 160.94C56.5999 165.61 54.2999 170.05 52.4099 174.36C52.0999 179.13 52.2799 183.94 52.1699 188.72C52.1699 188.83 52.1799 188.94 52.1899 189.05H53.6899C55.7399 185.56 57.8499 182.12 58.8699 178.13C60.3199 172.44 59.7799 166.34 57.5899 160.94Z" fill="#EAEAEA"/>
<path d="M40.1104 177.57C39.5604 174.91 39.4004 172.19 39.5804 169.5C37.0404 172.67 35.4104 176.55 35.5704 180.76C35.6904 183.97 37.0504 186.6 38.7504 189.06H45.0904C44.7904 188.56 44.4904 188.05 44.2004 187.55C42.3704 184.43 40.8404 181.16 40.1104 177.57Z" fill="#EAEAEA"/>
<path d="M49.3099 174.37C47.4099 170.06 45.1199 165.62 44.1299 160.95C41.9299 166.35 41.3899 172.45 42.8499 178.14C43.8699 182.13 45.9899 185.58 48.0299 189.06H49.5299C49.5399 188.95 49.5399 188.84 49.5499 188.73C49.4499 183.95 49.6199 179.14 49.3099 174.37Z" fill="#EAEAEA"/>
<path d="M46.1803 156.82C46.2803 161.99 48.7103 166.9 50.8503 171.59C52.9903 166.9 55.4303 161.98 55.5203 156.82C55.6203 151.56 53.3403 146.77 50.8503 142.31C48.3603 146.77 46.0903 151.56 46.1803 156.82Z" fill="#EAEAEA"/>
<path d="M89.9795 177.57C89.4295 174.91 89.2695 172.19 89.4495 169.5C86.9095 172.67 85.2795 176.55 85.4395 180.76C85.5595 183.97 86.9195 186.6 88.6195 189.06H94.9595C94.6595 188.56 94.3595 188.05 94.0695 187.55C92.2495 184.43 90.7195 181.16 89.9795 177.57Z" fill="#EAEAEA"/>
<path d="M112.01 169.5C112.19 172.19 112.02 174.9 111.48 177.57C110.74 181.16 109.21 184.43 107.4 187.55C107.11 188.06 106.81 188.56 106.51 189.06H112.85C114.55 186.6 115.9 183.98 116.03 180.76C116.19 176.55 114.55 172.67 112.01 169.5Z" fill="#EAEAEA"/>
<path d="M107.46 160.94C106.47 165.61 104.17 170.05 102.28 174.36C101.97 179.13 102.15 183.94 102.04 188.72C102.04 188.83 102.05 188.94 102.06 189.05H103.56C105.61 185.56 107.72 182.12 108.74 178.13C110.19 172.44 109.66 166.34 107.46 160.94Z" fill="#EAEAEA"/>
<path d="M96.0598 156.82C96.1598 161.99 98.5898 166.9 100.73 171.59C102.87 166.9 105.31 161.98 105.4 156.82C105.5 151.56 103.22 146.77 100.73 142.31C98.2298 146.77 95.9598 151.56 96.0598 156.82Z" fill="#EAEAEA"/>
<path d="M99.1898 174.37C97.2898 170.06 94.9998 165.62 94.0098 160.95C91.8098 166.35 91.2698 172.45 92.7298 178.14C93.7498 182.13 95.8698 185.58 97.9098 189.06H99.4098C99.4198 188.95 99.4198 188.84 99.4298 188.73C99.3198 183.95 99.4998 179.14 99.1898 174.37Z" fill="#EAEAEA"/>
<path d="M149.06 174.37C147.16 170.06 144.87 165.62 143.88 160.95C141.68 166.35 141.14 172.45 142.6 178.14C143.62 182.13 145.74 185.58 147.78 189.06H149.28C149.29 188.95 149.29 188.84 149.3 188.73C149.19 183.95 149.37 179.14 149.06 174.37Z" fill="#EAEAEA"/>
<path d="M145.93 156.82C146.03 161.99 148.46 166.9 150.6 171.59C152.74 166.9 155.18 161.98 155.27 156.82C155.37 151.56 153.09 146.77 150.6 142.31C148.11 146.77 145.83 151.56 145.93 156.82Z" fill="#EAEAEA"/>
<path d="M139.85 177.57C139.3 174.91 139.14 172.19 139.32 169.5C136.78 172.67 135.15 176.55 135.31 180.76C135.43 183.97 136.79 186.6 138.49 189.06H144.83C144.53 188.56 144.23 188.05 143.94 187.55C142.12 184.43 140.59 181.16 139.85 177.57Z" fill="#EAEAEA"/>
</g>
</g>
</svg>
